<svg xmlns="http://www.w3.org/2000/svg" width="10.545" height="10.545" viewBox="0 0 10.545 10.545">
  <path id="Path_641" data-name="Path 641" d="M258.545,253.272a.618.618,0,0,1-1.078.412h-.324a3.894,3.894,0,0,1-.319,1.182l.268.155a.609.609,0,0,1,.217-.04.618.618,0,1,1-.6.771l-.638-.37a.411.411,0,0,1-.149-.564,3.033,3.033,0,1,0-1.1,1.106.413.413,0,0,1,.564.146l.364.616a.618.618,0,1,1-.72.4l-.156-.264a3.865,3.865,0,0,1-1.2.32v.323a.618.618,0,1,1-.824,0v-.324a3.853,3.853,0,0,1-1.18-.319l-.174.3a.6.6,0,0,1,.036.208.618.618,0,1,1-.761-.6l.187-.32a3.921,3.921,0,0,1-.824-.82l-.281.166a.618.618,0,1,1-.608-.731.6.6,0,0,1,.179.027l.291-.171a3.849,3.849,0,0,1-.325-1.194h-.324a.618.618,0,1,1,0-.824h.324a3.858,3.858,0,0,1,.319-1.18l-.29-.169a.618.618,0,1,1,.409-.715l.3.173a3.936,3.936,0,0,1,.82-.824l-.166-.281a.618.618,0,1,1,.731-.608.6.6,0,0,1-.027.179l.171.291a3.849,3.849,0,0,1,1.194-.325v-.324a.618.618,0,1,1,.824,0v.324a3.859,3.859,0,0,1,1.18.319l.169-.29a.618.618,0,1,1,.715.409l-.173.3a3.936,3.936,0,0,1,.824.82l.281-.166a.617.617,0,1,1,.428.7l-.291.171a3.849,3.849,0,0,1,.325,1.194h.324a.618.618,0,0,1,1.078.412Zm-5.252-.391a.412.412,0,1,0,.412.412A.412.412,0,0,0,253.293,252.881Zm0-1.648a.412.412,0,1,0,.412.412A.412.412,0,0,0,253.293,251.233Zm0,3.3a.412.412,0,1,0,.412.412A.412.412,0,0,0,253.293,254.528Zm1.421-2.471a.412.412,0,1,0,.412.412A.412.412,0,0,0,254.714,252.057Zm0,1.627a.412.412,0,1,0,.412.412A.412.412,0,0,0,254.714,253.684Zm-2.842-1.627a.412.412,0,1,0,.412.412A.412.412,0,0,0,251.872,252.057Zm0,1.607a.412.412,0,1,0,.412.412A.412.412,0,0,0,251.872,253.664Z" transform="translate(-248 -248)" fill="#f24338"/>
</svg>
