<svg xmlns="http://www.w3.org/2000/svg" width="8.115" height="8.95" viewBox="0 0 8.115 8.95">
  <g id="Group_512" data-name="Group 512" transform="translate(-248.747 -248)">
    <path id="Path_633" data-name="Path 633" d="M256.139,254.988v-3.653a3.335,3.335,0,0,0-6.67,0v3.653h-.723v1.962h8.115v-1.962Zm-3.335-6.334a2.684,2.684,0,0,1,2.681,2.681v3.653h-5.361v-3.653A2.683,2.683,0,0,1,252.8,248.654Zm-3.4,7.643v-.654h6.807v.654Z" transform="translate(0)" fill="#a5a5a5"/>
    <path id="Path_634" data-name="Path 634" d="M252.927,254.395h.187l.375.632h.67l-.458-.774a.66.66,0,0,0,.2-.223.759.759,0,0,0,.07-.175.78.78,0,0,0,.024-.192.708.708,0,0,0-.053-.266.784.784,0,0,0-.147-.232.742.742,0,0,0-.223-.167.64.64,0,0,0-.285-.065h-.951v2.1h.59Zm.428-.581a.1.1,0,0,1-.083.049h-.345v-.4h.331a.127.127,0,0,1,.093.049.207.207,0,0,1,.048.147A.249.249,0,0,1,253.355,253.814Z" transform="translate(-1.582 -2.173)" fill="#a5a5a5"/>
    <rect id="Rectangle_414" data-name="Rectangle 414" width="0.59" height="2.095" transform="translate(252.602 250.759)" fill="#a5a5a5"/>
    <path id="Path_635" data-name="Path 635" d="M257.707,254.395h.328a.662.662,0,0,0,.286-.062.671.671,0,0,0,.22-.166.777.777,0,0,0,.139-.233.755.755,0,0,0,.05-.272.706.706,0,0,0-.053-.266.794.794,0,0,0-.145-.232.725.725,0,0,0-.221-.168.646.646,0,0,0-.288-.065h-.9v2.1h.59Zm.428-.733a.241.241,0,0,1-.042.157h0a.108.108,0,0,1-.085.044h-.3v-.4h.284a.145.145,0,0,1,.052.01.112.112,0,0,1,.043.03.189.189,0,0,1,.035.06A.293.293,0,0,1,258.135,253.662Z" transform="translate(-3.688 -2.173)" fill="#a5a5a5"/>
    <rect id="Rectangle_415" data-name="Rectangle 415" width="4.113" height="0.654" transform="translate(250.748 253.17)" fill="#a5a5a5"/>
  </g>
</svg>
