<svg xmlns="http://www.w3.org/2000/svg" width="8.219" height="7.488" viewBox="0 0 8.219 7.488">
  <g id="Group_541" data-name="Group 541" transform="translate(-220 -89.385)">
    <g id="Group_505" data-name="Group 505" transform="translate(178.782 47.386)">
      <path id="Path_627" data-name="Path 627" d="M43.543,42.793a1.537,1.537,0,0,0-1.534,1.584c.017,1.243,1.074,2.12,2.1,2.969a11.621,11.621,0,0,1,1.222,1.112,11.69,11.69,0,0,1,1.22-1.112c1.023-.852,2.083-1.734,2.1-2.978a1.523,1.523,0,0,0-1.159-1.529,1.568,1.568,0,0,0-1.809.91.4.4,0,0,1-.7,0,1.6,1.6,0,0,0-1.434-.956m1.784,6.694A.4.4,0,0,1,45,49.315a7.567,7.567,0,0,0-1.4-1.361c-1.106-.918-2.36-1.959-2.382-3.566a2.316,2.316,0,0,1,4.109-1.532,2.315,2.315,0,0,1,4.109,1.522c-.022,1.607-1.277,2.652-2.384,3.574a7.634,7.634,0,0,0-1.4,1.363.4.4,0,0,1-.327.172" transform="translate(0 0)" fill="#f08"/>
    </g>
  </g>
</svg>
